<svg width="19" height="19" viewBox="0 0 19 19" fill="none" xmlns="http://www.w3.org/2000/svg">
<path d="M5.54169 7.13245L5.54919 7.12411" stroke="#013D4E" stroke-width="1.5" stroke-linecap="round" stroke-linejoin="round"/>
<path d="M8.70831 7.13245L8.71581 7.12411" stroke="#013D4E" stroke-width="1.5" stroke-linecap="round" stroke-linejoin="round"/>
<path d="M5.54169 10.2991L5.54919 10.2908" stroke="#013D4E" stroke-width="1.5" stroke-linecap="round" stroke-linejoin="round"/>
<path d="M8.70831 10.2991L8.71581 10.2908" stroke="#013D4E" stroke-width="1.5" stroke-linecap="round" stroke-linejoin="round"/>
<path d="M5.54169 13.4658L5.54919 13.4575" stroke="#013D4E" stroke-width="1.5" stroke-linecap="round" stroke-linejoin="round"/>
<path d="M8.70831 13.4658L8.71581 13.4575" stroke="#013D4E" stroke-width="1.5" stroke-linecap="round" stroke-linejoin="round"/>
<path d="M11.875 16.625H2.85C2.58767 16.625 2.375 16.4124 2.375 16.15V4.43333C2.375 4.171 2.58767 3.95833 2.85 3.95833H7.125V2.85C7.125 2.58767 7.33767 2.375 7.6 2.375H11.4C11.6624 2.375 11.875 2.58767 11.875 2.85V7.125M11.875 16.625H16.15C16.4124 16.625 16.625 16.4124 16.625 16.15V7.6C16.625 7.33767 16.4124 7.125 16.15 7.125H11.875M11.875 16.625V13.4583M11.875 7.125V10.2917M11.875 13.4583V10.2917M11.875 13.4583H13.4583M11.875 10.2917H13.4583" stroke="#013D4E" stroke-width="1.5" stroke-linecap="round" stroke-linejoin="round"/>
</svg>
