<svg width="19" height="19" viewBox="0 0 19 19" fill="none" xmlns="http://www.w3.org/2000/svg">
<path d="M6.72919 3.16666H4.75002C3.87557 3.16666 3.16669 3.87554 3.16669 4.74999V15.8333C3.16669 16.7078 3.87557 17.4167 4.75002 17.4167H9.50002" stroke="#013D4E" stroke-width="1.5" stroke-linecap="round"/>
<path d="M12.2708 3.16666H14.25C15.1245 3.16666 15.8333 3.87554 15.8333 4.74999V11.875" stroke="#013D4E" stroke-width="1.5" stroke-linecap="round"/>
<path d="M6.33331 5.06666V3.56249C6.33331 3.34388 6.51054 3.16666 6.72915 3.16666C6.94776 3.16666 7.12832 2.98935 7.16577 2.77397C7.28306 2.09926 7.73772 0.791656 9.49998 0.791656C11.2622 0.791656 11.7169 2.09926 11.8342 2.77397C11.8717 2.98935 12.0522 3.16666 12.2708 3.16666C12.4894 3.16666 12.6666 3.34388 12.6666 3.56249V5.06666C12.6666 5.32899 12.454 5.54166 12.1916 5.54166H6.80831C6.54598 5.54166 6.33331 5.32899 6.33331 5.06666Z" stroke="#013D4E" stroke-width="1.5" stroke-linecap="round"/>
<path d="M12.2708 16.2292L13.8541 17.8125L17.8125 13.8542" stroke="#013D4E" stroke-width="1.5" stroke-linecap="round" stroke-linejoin="round"/>
</svg>
