<svg width="19" height="19" viewBox="0 0 19 19" fill="none" xmlns="http://www.w3.org/2000/svg">
<path d="M3.16669 15.0417V3.95833C3.16669 3.08388 3.87557 2.375 4.75002 2.375H15.3584C15.6207 2.375 15.8334 2.58767 15.8334 2.85V13.2322" stroke="#00404E" stroke-width="1.5" stroke-linecap="round"/>
<path d="M7.91669 11.0833C7.91669 11.0833 8.62919 8.61523 10.2917 7.125" stroke="#00404E" stroke-width="1.5" stroke-linecap="round" stroke-linejoin="round"/>
<path d="M10.1351 9.83607L10.0286 9.84613C8.68916 9.97192 7.49628 8.98867 7.36418 7.64987C7.23207 6.31107 8.21076 5.12374 9.55018 4.99789L11.9138 4.7758C12.0655 4.76155 12.2004 4.87286 12.2154 5.02443L12.417 7.06766C12.5549 8.46522 11.5332 9.70474 10.1351 9.83607Z" stroke="#00404E" stroke-width="1.5" stroke-linecap="round" stroke-linejoin="round"/>
<path d="M4.75 13.4583H15.8333" stroke="#00404E" stroke-width="1.5" stroke-linecap="round"/>
<path d="M4.75 16.625H15.8333" stroke="#00404E" stroke-width="1.5" stroke-linecap="round"/>
<path d="M4.75002 16.625C3.87557 16.625 3.16669 15.9162 3.16669 15.0417C3.16669 14.1672 3.87557 13.4583 4.75002 13.4583" stroke="#00404E" stroke-width="1.5" stroke-linecap="round" stroke-linejoin="round"/>
</svg>
