<svg width="128" height="38" viewBox="0 0 128 38" fill="none" xmlns="http://www.w3.org/2000/svg">
<path d="M37.0634 10.8076C37.0634 10.3793 36.8958 9.96848 36.5974 9.66561C36.2989 9.36274 35.8942 9.19259 35.4721 9.19259C35.205 9.19786 34.9436 9.27215 34.7125 9.40843L31.5185 5.88552C31.6413 5.65586 31.7066 5.39906 31.7084 5.13777C31.71 4.84024 31.6302 4.54809 31.4779 4.29386C31.3256 4.03964 31.1067 3.83331 30.8457 3.69786C30.5847 3.5624 30.2917 3.50314 29.9995 3.52667C29.7072 3.5502 29.4271 3.6556 29.1904 3.83113L24.3025 1.6534C24.3001 1.27019 24.1631 0.900414 23.9162 0.61046C23.6693 0.320505 23.3287 0.129357 22.9554 0.0713304C22.5822 0.0133036 22.2008 0.0921979 21.8797 0.29385C21.5586 0.495503 21.3188 0.806707 21.2035 1.1716H13.7444C13.6389 0.793987 13.4012 0.468452 13.0759 0.256118C12.7507 0.0437835 12.3602 -0.0407454 11.9779 0.0184036C11.5956 0.0775525 11.2477 0.27631 10.9995 0.577357C10.7513 0.878404 10.62 1.26103 10.6302 1.6534C10.6269 1.71245 10.6269 1.77164 10.6302 1.8307L7.08673 3.66924C6.95945 3.49427 6.79851 3.34733 6.61364 3.23733C6.42878 3.12732 6.22383 3.05654 6.01123 3.02926C5.79862 3.00198 5.58277 3.01878 5.37674 3.07863C5.17072 3.13849 4.97881 3.24015 4.81263 3.37748C4.64645 3.5148 4.50946 3.68492 4.40995 3.87754C4.31045 4.07017 4.2505 4.28128 4.23373 4.4981C4.21697 4.71492 4.24373 4.93294 4.31241 5.13896C4.38109 5.34498 4.49026 5.5347 4.6333 5.69665L1.89502 9.22342C1.49927 9.14898 1.09043 9.22988 0.751225 9.44975C0.412015 9.66962 0.167758 10.012 0.0678711 10.4077C-0.0320161 10.8034 0.019924 11.2229 0.213183 11.5812C0.406442 11.9395 0.726591 12.2099 1.10886 12.3378V16.8397C0.86097 16.9188 0.636059 17.0585 0.45396 17.2466C0.271861 17.4348 0.138169 17.6655 0.0646722 17.9184C-0.00882441 18.1714 -0.0198677 18.4388 0.0325173 18.6971C0.0849023 18.9554 0.199106 19.1966 0.365057 19.3995C0.531008 19.6025 0.743607 19.7608 0.984108 19.8607C1.22461 19.9605 1.48562 19.9988 1.74413 19.972C2.00264 19.9453 2.2507 19.8545 2.46644 19.7075C2.68218 19.5605 2.85897 19.3619 2.98122 19.1292L6.66137 19.7035C6.70733 20.0838 6.88566 20.435 7.16421 20.6936C7.44275 20.9523 7.80318 21.1014 8.18052 21.1142L9.8288 24.3519C9.58754 24.4547 9.37499 24.6163 9.20996 24.8224C9.04492 25.0285 8.93251 25.2726 8.88266 25.5333C8.83282 25.794 8.84709 26.0632 8.9242 26.3169C9.00131 26.5707 9.1389 26.8012 9.32476 26.9881C9.51062 27.1751 9.73904 27.3126 9.98977 27.3885C10.2405 27.4645 10.5058 27.4765 10.7622 27.4235C11.0186 27.3706 11.2582 27.2542 11.4597 27.0849C11.6613 26.9155 11.8186 26.6983 11.9176 26.4526L17.5081 28.1947C17.5288 28.5168 17.6446 28.8251 17.8404 29.0795C18.0361 29.3338 18.3028 29.5225 18.6057 29.6209L18.5222 34.8436C18.1591 34.9587 17.8486 35.2021 17.6471 35.5296C17.4456 35.8571 17.3664 36.247 17.4238 36.6287C17.4812 37.0104 17.6714 37.3585 17.96 37.6101C18.2486 37.8617 18.6165 38 18.9969 38C19.3773 38 19.7452 37.8617 20.0338 37.6101C20.3223 37.3585 20.5126 37.0104 20.57 36.6287C20.6274 36.247 20.5482 35.8571 20.3467 35.5296C20.1452 35.2021 19.8347 34.9587 19.4716 34.8436L19.5628 29.6209C19.8504 29.5319 20.107 29.3617 20.3028 29.1302C20.4986 28.8987 20.6255 28.6154 20.6685 28.3134C20.7115 28.0114 20.6689 27.7033 20.5458 27.4249C20.4226 27.1466 20.2239 26.9096 19.973 26.7416L20.7591 24.3596L26.5243 26.36C26.5236 26.7044 26.6317 27.0399 26.8327 27.3174C27.0336 27.5948 27.3169 27.7997 27.6409 27.9018V34.8397C27.2778 34.9549 26.9673 35.1983 26.7658 35.5258C26.5643 35.8533 26.4851 36.2432 26.5425 36.6248C26.5999 37.0065 26.7902 37.3547 27.0788 37.6063C27.3673 37.8578 27.7352 37.9961 28.1156 37.9961C28.4961 37.9961 28.8639 37.8578 29.1525 37.6063C29.4411 37.3547 29.6313 37.0065 29.6887 36.6248C29.7461 36.2432 29.6669 35.8533 29.4654 35.5258C29.2639 35.1983 28.9535 34.9549 28.5904 34.8397V27.9018C28.8077 27.8352 29.0082 27.7215 29.178 27.5685C29.3478 27.4156 29.4829 27.2271 29.5739 27.016C29.6649 26.8049 29.7097 26.5762 29.7051 26.3459C29.7005 26.1155 29.6467 25.8889 29.5474 25.6817L34.6366 21.3994C34.8868 21.5596 35.1763 21.6451 35.4721 21.6461C35.8497 21.6436 36.2141 21.5046 36.4998 21.2541C36.7855 21.0035 36.9738 20.6578 37.031 20.279C37.0882 19.9002 37.0104 19.5131 36.8117 19.1872C36.613 18.8614 36.3064 18.618 35.9469 18.5009V12.3339C36.2684 12.2326 36.5499 12.0301 36.7506 11.7557C36.9513 11.4813 37.0609 11.1493 37.0634 10.8076ZM34.6442 18.6628L29.9994 14.6967L34.5568 12.1335C34.6878 12.2227 34.8312 12.2916 34.9822 12.3378V18.5048C34.8625 18.5435 34.7477 18.5965 34.6404 18.6628H34.6442ZM17.7436 27.262L11.9974 25.4697C11.93 25.187 11.7886 24.9282 11.588 24.7205C11.3874 24.5129 11.1351 24.3642 10.858 24.2902L9.111 20.8406C9.25811 20.7347 9.38651 20.6044 9.49079 20.4551L16.8093 22.9913L17.9487 26.9652C17.8696 27.056 17.8008 27.1556 17.7436 27.262ZM6.83227 18.7553L3.14832 18.181C3.11192 17.874 2.989 17.5841 2.79431 17.3462C2.59963 17.1083 2.34145 16.9324 2.05073 16.8397V12.3378C2.29418 12.2599 2.51553 12.1236 2.69602 11.9404C2.87651 11.7572 3.01082 11.5326 3.08756 11.2855H6.83227L7.69439 17.9845C7.32226 18.1232 7.01472 18.3981 6.83227 18.7553ZM5.89799 6.30179C5.9962 6.30074 6.0941 6.29042 6.19043 6.27096L6.71074 10.3258H3.08756C3.01675 10.0929 2.89467 9.87934 2.73056 9.70137L5.46123 6.23241C5.60286 6.27635 5.74991 6.29971 5.89799 6.30179ZM8.64766 17.9536L7.78934 11.2855H12.267C12.3652 11.6059 12.5598 11.8871 12.8233 12.0896C13.0869 12.2921 13.4063 12.4059 13.7368 12.4149L14.6141 15.4483L9.2971 18.3275C9.11307 18.1521 8.89041 18.0239 8.64766 17.9536ZM22.7492 11.0157L17.9145 13.6598L15.3471 11.0273C15.3859 10.8038 15.3736 10.5742 15.311 10.3563C15.2485 10.1385 15.1374 9.9381 14.9863 9.77075L18.0626 6.83755L22.7834 10.3489C22.7086 10.5681 22.6916 10.8032 22.734 11.0311L22.7492 11.0157ZM14.9028 11.9446L17.041 14.1339L15.4725 14.9742L14.6521 12.1412C14.7419 12.0843 14.8258 12.0184 14.9028 11.9446ZM14.4166 10.7883C14.4166 10.9171 14.379 11.0431 14.3085 11.1502C14.2379 11.2573 14.1377 11.3408 14.0204 11.3901C13.9031 11.4394 13.7741 11.4523 13.6496 11.4272C13.5251 11.402 13.4107 11.34 13.321 11.2489C13.2312 11.1578 13.1701 11.0417 13.1453 10.9154C13.1205 10.789 13.1332 10.6581 13.1818 10.539C13.2304 10.42 13.3127 10.3183 13.4182 10.2467C13.5238 10.1751 13.6479 10.1369 13.7748 10.1369C13.8617 10.1353 13.9479 10.1516 14.0284 10.1849C14.1089 10.2181 14.1819 10.2676 14.243 10.3303C14.304 10.393 14.3519 10.4676 14.3837 10.5497C14.4156 10.6317 14.4306 10.7194 14.428 10.8076L14.4166 10.7883ZM9.80602 19.5609C9.80602 19.5416 9.80602 19.5224 9.80602 19.5031C9.80621 19.3904 9.79475 19.278 9.77183 19.1678L14.8838 16.3926L16.4789 21.8735L9.80602 19.5609ZM15.7421 15.9301L17.736 14.847L20.6034 17.7879C20.4632 18.1441 20.4548 18.5399 20.5798 18.9019C20.7047 19.264 20.9546 19.5679 21.2832 19.7575L20.1439 23.1532L17.5613 22.2551L15.7421 15.9301ZM22.0808 19.0136C21.9538 19.0136 21.8297 18.9754 21.7242 18.9038C21.6186 18.8322 21.5364 18.7305 21.4878 18.6115C21.4392 18.4924 21.4265 18.3615 21.4513 18.2351C21.476 18.1087 21.5372 17.9927 21.6269 17.9016C21.7167 17.8105 21.8311 17.7484 21.9556 17.7233C22.0801 17.6982 22.2091 17.7111 22.3264 17.7604C22.4437 17.8097 22.5439 17.8932 22.6145 18.0003C22.685 18.1074 22.7226 18.2334 22.7226 18.3622C22.7236 18.448 22.7079 18.5333 22.6763 18.6129C22.6448 18.6926 22.598 18.7652 22.5387 18.8264C22.4794 18.8877 22.4087 18.9364 22.3308 18.9699C22.2529 19.0033 22.1692 19.0208 22.0846 19.0213L22.0808 19.0136ZM22.0808 16.751C21.7655 16.7506 21.4573 16.8459 21.1959 17.0247L18.6057 14.3729L23.1632 11.8907C23.4425 12.1992 23.8303 12.3836 24.2427 12.4038C24.6551 12.424 25.0587 12.2784 25.366 11.9986L28.3207 14.5155L23.2961 17.3331C23.1478 17.1533 22.9625 17.0086 22.7532 16.9094C22.5438 16.8102 22.3156 16.7588 22.0846 16.7588L22.0808 16.751ZM29.574 6.64869C29.7779 6.72722 29.996 6.76029 30.2136 6.74566C30.4311 6.73103 30.643 6.66903 30.8349 6.56389L34.0441 10.1099C33.9481 10.3028 33.893 10.5139 33.8826 10.7297C33.8721 10.9455 33.9064 11.1611 33.9833 11.3626L29.2018 14.0337L25.8597 11.1815C25.9475 10.8351 25.9139 10.4686 25.7647 10.1446L29.574 6.64869ZM24.9558 10.8076C24.9558 10.9359 24.9184 11.0614 24.8484 11.1682C24.7783 11.2751 24.6787 11.3586 24.5621 11.4082C24.4455 11.4578 24.317 11.4714 24.1928 11.4472C24.0687 11.423 23.9543 11.3621 23.8641 11.2721C23.7739 11.1822 23.7119 11.0672 23.6858 10.9416C23.6598 10.816 23.6709 10.6854 23.7177 10.5662C23.7646 10.447 23.8451 10.3445 23.9491 10.2715C24.0532 10.1986 24.1761 10.1585 24.3025 10.1562C24.3878 10.1546 24.4725 10.1704 24.5517 10.2024C24.6309 10.2345 24.703 10.2822 24.7638 10.3428C24.8246 10.4035 24.8729 10.4758 24.9059 10.5556C24.9388 10.6354 24.9558 10.7211 24.9558 10.8076ZM23.6607 18.2311L29.0917 15.1977L33.5884 19.0251L23.6037 18.8286C23.649 18.6825 23.6733 18.5307 23.6759 18.3776C23.6759 18.3236 23.6645 18.2774 23.6607 18.2311ZM35.4721 10.1562C35.5991 10.1562 35.7232 10.1944 35.8287 10.266C35.9343 10.3375 36.0165 10.4393 36.0651 10.5583C36.1137 10.6773 36.1264 10.8083 36.1016 10.9347C36.0769 11.061 36.0157 11.1771 35.926 11.2682C35.8362 11.3593 35.7218 11.4213 35.5973 11.4465C35.4728 11.4716 35.3438 11.4587 35.2265 11.4094C35.1092 11.3601 35.009 11.2766 34.9384 11.1695C34.8679 11.0624 34.8303 10.9364 34.8303 10.8076C34.8303 10.6348 34.8979 10.4691 35.0183 10.347C35.1386 10.2248 35.3019 10.1562 35.4721 10.1562ZM30.1095 4.48252C30.2365 4.48252 30.3605 4.52072 30.4661 4.5923C30.5716 4.66388 30.6539 4.76561 30.7025 4.88464C30.7511 5.00366 30.7638 5.13463 30.739 5.26099C30.7143 5.38735 30.6531 5.50342 30.5634 5.59452C30.4736 5.68562 30.3592 5.74765 30.2347 5.77279C30.1102 5.79792 29.9812 5.78502 29.8639 5.73572C29.7466 5.68642 29.6464 5.60293 29.5758 5.49581C29.5053 5.38869 29.4677 5.26275 29.4677 5.13391C29.4677 4.96115 29.5353 4.79547 29.6557 4.67331C29.776 4.55115 29.9393 4.48252 30.1095 4.48252ZM28.5904 4.62513C28.5058 4.86174 28.4795 5.11577 28.514 5.36504C28.5484 5.6143 28.6424 5.85123 28.7878 6.05511L25.1115 9.4277C24.8357 9.25602 24.5141 9.17599 24.1913 9.19879C23.8686 9.22159 23.5609 9.34609 23.3113 9.5549L18.7538 6.16689L21.982 3.08338C22.2017 3.19831 22.4451 3.25905 22.6922 3.26068C22.9481 3.26072 23.2001 3.19801 23.427 3.07788C23.6538 2.95775 23.8486 2.78376 23.9949 2.57074L28.5904 4.62513ZM21.3098 2.41657L17.9867 5.58488L13.6685 2.37031C13.7049 2.29451 13.7354 2.21589 13.7596 2.1352H21.1921C21.2223 2.2326 21.2618 2.32683 21.3098 2.41657ZM22.6998 1.002C22.8268 1.002 22.9509 1.04021 23.0564 1.11178C23.162 1.18336 23.2442 1.28509 23.2928 1.40412C23.3414 1.52315 23.3541 1.65412 23.3293 1.78048C23.3046 1.90683 23.2435 2.0229 23.1537 2.114C23.0639 2.2051 22.9496 2.26714 22.8251 2.29227C22.7005 2.31741 22.5715 2.30451 22.4542 2.2552C22.3369 2.2059 22.2367 2.12241 22.1662 2.01529C22.0956 1.90817 22.058 1.78223 22.058 1.6534C22.058 1.56753 22.0747 1.48251 22.1072 1.40323C22.1397 1.32394 22.1873 1.25196 22.2473 1.19142C22.3073 1.13089 22.3785 1.08299 22.4568 1.05048C22.5352 1.01797 22.619 1.0015 22.7036 1.002H22.6998ZM12.2329 1.002C12.3598 1.002 12.4839 1.04021 12.5895 1.11178C12.695 1.18336 12.7773 1.28509 12.8258 1.40412C12.8744 1.52315 12.8871 1.65412 12.8624 1.78048C12.8376 1.90683 12.7765 2.0229 12.6867 2.114C12.597 2.2051 12.4826 2.26714 12.3581 2.29227C12.2336 2.31741 12.1045 2.30451 11.9872 2.2552C11.87 2.2059 11.7697 2.12241 11.6992 2.01529C11.6287 1.90817 11.591 1.78223 11.591 1.6534C11.591 1.48064 11.6586 1.31495 11.779 1.19279C11.8994 1.07063 12.0626 1.002 12.2329 1.002ZM11.0441 2.71335C11.2772 2.99131 11.598 3.1786 11.9519 3.24327C12.3059 3.30794 12.6709 3.24598 12.9848 3.06796L17.284 6.25939L14.1546 9.24269C13.7614 9.13644 13.3429 9.19019 12.9882 9.3925C12.6335 9.59481 12.3706 9.92968 12.2557 10.3258H7.66781L7.07913 5.75832C7.34196 5.46507 7.48813 5.08322 7.48931 4.6868C7.48931 4.6444 7.48931 4.60586 7.48931 4.56732L11.0441 2.71335ZM5.89799 4.03926C6.02494 4.03926 6.14903 4.07747 6.25458 4.14904C6.36013 4.22062 6.4424 4.32235 6.49098 4.44138C6.53956 4.56041 6.55227 4.69138 6.5275 4.81774C6.50274 4.9441 6.44161 5.06016 6.35184 5.15126C6.26208 5.24236 6.14771 5.3044 6.02321 5.32953C5.8987 5.35467 5.76965 5.34177 5.65237 5.29247C5.53509 5.24316 5.43484 5.15967 5.36432 5.05255C5.29379 4.94543 5.25615 4.81949 5.25615 4.69066C5.25615 4.5179 5.32377 4.35221 5.44414 4.23005C5.56451 4.10789 5.72776 4.03926 5.89799 4.03926ZM1.576 10.1562C1.70294 10.1562 1.82704 10.1944 1.93259 10.266C2.03814 10.3375 2.1204 10.4393 2.16898 10.5583C2.21756 10.6773 2.23027 10.8083 2.20551 10.9347C2.18074 11.061 2.11961 11.1771 2.02985 11.2682C1.94009 11.3593 1.82572 11.4213 1.70122 11.4465C1.57671 11.4716 1.44766 11.4587 1.33038 11.4094C1.21309 11.3601 1.11285 11.2766 1.04233 11.1695C0.971799 11.0624 0.934156 10.9364 0.934156 10.8076C0.934156 10.6348 1.00178 10.4691 1.12215 10.347C1.24252 10.2248 1.40577 10.1562 1.576 10.1562ZM1.576 19.0213C1.44905 19.0213 1.32496 18.9831 1.21941 18.9115C1.11386 18.8399 1.03159 18.7382 0.983014 18.6192C0.934434 18.5001 0.921723 18.3692 0.946488 18.2428C0.971254 18.1165 1.03238 18.0004 1.12215 17.9093C1.21191 17.8182 1.32628 17.7562 1.45078 17.731C1.57529 17.7059 1.70434 17.7188 1.82162 17.7681C1.9389 17.8174 2.03915 17.9009 2.10967 18.008C2.1802 18.1151 2.21784 18.2411 2.21784 18.3699C2.21784 18.5427 2.15022 18.7083 2.02985 18.8305C1.90948 18.9527 1.74623 19.0213 1.576 19.0213ZM7.59185 19.5031C7.59185 19.3743 7.62949 19.2483 7.70002 19.1412C7.77054 19.0341 7.87079 18.9506 7.98807 18.9013C8.10535 18.852 8.2344 18.8391 8.35891 18.8642C8.48341 18.8893 8.59778 18.9514 8.68754 19.0425C8.7773 19.1336 8.83843 19.2496 8.8632 19.376C8.88797 19.5024 8.87526 19.6333 8.82668 19.7524C8.7781 19.8714 8.69583 19.9731 8.59028 20.0447C8.48473 20.1163 8.36063 20.1545 8.23369 20.1545C8.06346 20.1545 7.90021 20.0858 7.77984 19.9637C7.65947 19.8415 7.59185 19.6758 7.59185 19.5031ZM10.463 26.4911C10.3361 26.4911 10.212 26.4529 10.1065 26.3813C10.0009 26.3097 9.91864 26.208 9.87006 26.089C9.82148 25.97 9.80877 25.839 9.83354 25.7126C9.8583 25.5863 9.91943 25.4702 10.0092 25.3791C10.099 25.288 10.2133 25.226 10.3378 25.2008C10.4623 25.1757 10.5914 25.1886 10.7087 25.2379C10.826 25.2872 10.9262 25.3707 10.9967 25.4778C11.0672 25.5849 11.1049 25.7109 11.1049 25.8397C11.1049 25.9259 11.088 26.0112 11.0553 26.0908C11.0226 26.1703 10.9746 26.2425 10.9142 26.3031C10.8538 26.3636 10.7822 26.4115 10.7034 26.4437C10.6247 26.476 10.5404 26.4921 10.4555 26.4911H10.463ZM18.9855 37.0406C18.8586 37.0406 18.7345 37.0024 18.6289 36.9308C18.5234 36.8592 18.4411 36.7575 18.3925 36.6385C18.3439 36.5194 18.3312 36.3885 18.356 36.2621C18.3808 36.1357 18.4419 36.0197 18.5317 35.9286C18.6214 35.8375 18.7358 35.7754 18.8603 35.7503C18.9848 35.7252 19.1138 35.7381 19.2311 35.7874C19.3484 35.8367 19.4486 35.9202 19.5192 36.0273C19.5897 36.1344 19.6273 36.2603 19.6273 36.3892C19.6273 36.5619 19.5597 36.7276 19.4394 36.8498C19.319 36.9719 19.1557 37.0406 18.9855 37.0406ZM19.0805 28.7536C18.9546 28.7491 18.8328 28.7071 18.7303 28.6328C18.6278 28.5585 18.5491 28.4553 18.504 28.3359C18.4589 28.2165 18.4493 28.0864 18.4766 27.9616C18.5039 27.8368 18.5668 27.7229 18.6574 27.6341C18.748 27.5453 18.8623 27.4855 18.9862 27.4622C19.11 27.4389 19.2379 27.453 19.3538 27.503C19.4698 27.5529 19.5687 27.6363 19.6383 27.7429C19.7079 27.8494 19.745 27.9744 19.7451 28.1022C19.7451 28.1884 19.7282 28.2738 19.6955 28.3533C19.6628 28.4328 19.6148 28.505 19.5544 28.5656C19.494 28.6262 19.4223 28.674 19.3436 28.7063C19.2648 28.7386 19.1806 28.7546 19.0956 28.7536H19.0805ZM19.0425 26.4911C18.9596 26.4935 18.8771 26.5026 18.7956 26.5181L17.8879 23.3883L19.8438 24.0667L19.0425 26.4911ZM22.2137 19.9849C22.4407 19.9664 22.661 19.898 22.8593 19.7845L33.8732 20.008C33.8732 20.008 33.8732 20.035 33.8732 20.0466C33.8737 20.2668 33.919 20.4846 34.0061 20.6864L28.9018 24.9763C28.6633 24.8342 28.3922 24.7584 28.1156 24.7566C27.8575 24.7566 27.6032 24.8205 27.3749 24.9427C27.1466 25.065 26.9511 25.2419 26.8053 25.4581L21.0591 23.4538L22.2137 19.9849ZM28.1004 37.0406C27.9735 37.0406 27.8494 37.0024 27.7438 36.9308C27.6383 36.8592 27.556 36.7575 27.5074 36.6385C27.4589 36.5194 27.4462 36.3885 27.4709 36.2621C27.4957 36.1357 27.5568 36.0197 27.6466 35.9286C27.7363 35.8375 27.8507 35.7754 27.9752 35.7503C28.0997 35.7252 28.2288 35.7381 28.3461 35.7874C28.4633 35.8367 28.5636 35.9202 28.6341 36.0273C28.7046 36.1344 28.7423 36.2603 28.7423 36.3892C28.7423 36.5619 28.6746 36.7276 28.5543 36.8498C28.4339 36.9719 28.2707 37.0406 28.1004 37.0406ZM28.1004 27.0191C27.9735 27.0191 27.8494 26.9809 27.7438 26.9094C27.6383 26.8378 27.556 26.7361 27.5074 26.617C27.4589 26.498 27.4462 26.367 27.4709 26.2407C27.4957 26.1143 27.5568 25.9983 27.6466 25.9072C27.7363 25.8161 27.8507 25.754 27.9752 25.7289C28.0997 25.7037 28.2288 25.7166 28.3461 25.7659C28.4633 25.8153 28.5636 25.8987 28.6341 26.0059C28.7046 26.113 28.7423 26.2389 28.7423 26.3678C28.7423 26.5405 28.6746 26.7062 28.5543 26.8284C28.4339 26.9505 28.2707 27.0191 28.1004 27.0191ZM35.4607 20.6825C35.3338 20.6825 35.2097 20.6443 35.1041 20.5727C34.9986 20.5012 34.9163 20.3994 34.8677 20.2804C34.8192 20.1614 34.8065 20.0304 34.8312 19.9041C34.856 19.7777 34.9171 19.6616 35.0069 19.5705C35.0966 19.4794 35.211 19.4174 35.3355 19.3923C35.46 19.3671 35.5891 19.38 35.7064 19.4293C35.8236 19.4786 35.9239 19.5621 35.9944 19.6692C36.0649 19.7764 36.1026 19.9023 36.1026 20.0311C36.1026 20.2019 36.0365 20.3659 35.9186 20.4877C35.8007 20.6095 35.6404 20.6795 35.4721 20.6825H35.4607Z" fill="#2B606F"/>
<path d="M48.7551 13.38H50.0151V24H48.7551V13.38ZM52.6515 13.38H54.5265L58.1265 21.705H58.1565L61.7865 13.38H63.6165V24H62.3565V15.09H62.3265L58.5165 24H57.7515L53.9415 15.09H53.9115V24H52.6515V13.38ZM66.2599 13.38H68.1349L71.7349 21.705H71.7649L75.3949 13.38H77.2249V24H75.9649V15.09H75.9349L72.1249 24H71.3599L67.5499 15.09H67.5199V24H66.2599V13.38ZM84.8033 24.27C83.9933 24.27 83.2483 24.13 82.5683 23.85C81.8983 23.57 81.3133 23.185 80.8133 22.695C80.3233 22.195 79.9383 21.605 79.6583 20.925C79.3883 20.235 79.2533 19.49 79.2533 18.69C79.2533 17.89 79.3883 17.15 79.6583 16.47C79.9383 15.78 80.3233 15.19 80.8133 14.7C81.3133 14.2 81.8983 13.81 82.5683 13.53C83.2483 13.25 83.9933 13.11 84.8033 13.11C85.6133 13.11 86.3533 13.25 87.0233 13.53C87.7033 13.81 88.2883 14.2 88.7783 14.7C89.2783 15.19 89.6633 15.78 89.9333 16.47C90.2133 17.15 90.3533 17.89 90.3533 18.69C90.3533 19.49 90.2133 20.235 89.9333 20.925C89.6633 21.605 89.2783 22.195 88.7783 22.695C88.2883 23.185 87.7033 23.57 87.0233 23.85C86.3533 24.13 85.6133 24.27 84.8033 24.27ZM84.8033 23.1C85.4233 23.1 85.9883 22.985 86.4983 22.755C87.0183 22.525 87.4633 22.21 87.8333 21.81C88.2033 21.41 88.4883 20.945 88.6883 20.415C88.8983 19.875 89.0033 19.3 89.0033 18.69C89.0033 18.08 88.8983 17.51 88.6883 16.98C88.4883 16.44 88.2033 15.97 87.8333 15.57C87.4633 15.17 87.0183 14.855 86.4983 14.625C85.9883 14.395 85.4233 14.28 84.8033 14.28C84.1833 14.28 83.6133 14.395 83.0933 14.625C82.5833 14.855 82.1433 15.17 81.7733 15.57C81.4033 15.97 81.1133 16.44 80.9033 16.98C80.7033 17.51 80.6033 18.08 80.6033 18.69C80.6033 19.3 80.7033 19.875 80.9033 20.415C81.1133 20.945 81.4033 21.41 81.7733 21.81C82.1433 22.21 82.5833 22.525 83.0933 22.755C83.6133 22.985 84.1833 23.1 84.8033 23.1ZM92.2481 11.964H94.9001V24H92.2481V11.964ZM110.487 24H103.194C102.254 24 101.381 23.864 100.576 23.592C99.783 23.3087 99.0974 22.9007 98.5194 22.368C97.9414 21.8353 97.488 21.1893 97.1594 20.43C96.8307 19.6707 96.6664 18.8037 96.6664 17.829C96.6664 16.9223 96.8307 16.0893 97.1594 15.33C97.4994 14.5707 97.9584 13.919 98.5364 13.375C99.1144 12.831 99.7944 12.4117 100.576 12.117C101.358 11.811 102.197 11.658 103.092 11.658C103.988 11.658 104.826 11.811 105.608 12.117C106.39 12.423 107.07 12.848 107.648 13.392C108.226 13.936 108.68 14.5877 109.008 15.347C109.348 16.095 109.518 16.9223 109.518 17.829C109.518 18.2597 109.467 18.679 109.365 19.087C109.275 19.495 109.133 19.8803 108.94 20.243C108.748 20.6057 108.498 20.9343 108.192 21.229C107.886 21.5123 107.529 21.7447 107.121 21.926V21.96H110.487V24ZM99.4204 17.829C99.4204 18.3503 99.5167 18.8377 99.7094 19.291C99.902 19.7443 100.163 20.141 100.491 20.481C100.831 20.8097 101.222 21.0703 101.664 21.263C102.106 21.4557 102.582 21.552 103.092 21.552C103.602 21.552 104.078 21.4557 104.52 21.263C104.962 21.0703 105.348 20.8097 105.676 20.481C106.016 20.141 106.283 19.7443 106.475 19.291C106.668 18.8377 106.764 18.3503 106.764 17.829C106.764 17.3077 106.668 16.8203 106.475 16.367C106.283 15.9137 106.016 15.5227 105.676 15.194C105.348 14.854 104.962 14.5877 104.52 14.395C104.078 14.2023 103.602 14.106 103.092 14.106C102.582 14.106 102.106 14.2023 101.664 14.395C101.222 14.5877 100.831 14.854 100.491 15.194C100.163 15.5227 99.902 15.9137 99.7094 16.367C99.5167 16.8203 99.4204 17.3077 99.4204 17.829Z" fill="#2B606F"/>
</svg>
