<svg width="205" height="67" viewBox="0 0 205 67" fill="none" xmlns="http://www.w3.org/2000/svg">
<g clip-path="url(#clip0_1_56)">
<path d="M0 33.5597L10.036 23.4424V10.3661H18.3576V14.9305L33.2898 0L53.9737 20.8517L33.2898 41.8294L22.7635 31.586L10.4012 44.0486L0 33.5597Z" fill="#003F52"/>
<path d="M14.5637 48.122L23.007 39.6069L33.0463 49.8469L58.0144 25.0479L66.336 33.5597L33.168 67L14.5637 48.122Z" fill="#003F52"/>
<path d="M80.7615 33.918V12.4924H85.0457V33.918H80.7615Z" fill="#003F52"/>
<path d="M88.1091 17.7767H92.0379V19.4286H92.0972C93.1403 17.9591 94.4203 17.3587 96.1445 17.3587C98.02 17.3587 99.3856 18.2908 99.8331 19.9395H99.8923C100.518 18.2278 102.005 17.3587 103.94 17.3587C106.651 17.3587 107.928 19.0704 107.928 22.1885V33.9246H103.821V22.6396C103.821 21.2895 103.374 20.5365 102.212 20.5365C100.899 20.5365 100.067 21.4355 100.067 23.2964V33.9213H95.9602V22.6363C95.9602 21.2862 95.5127 20.5332 94.3511 20.5332C93.0382 20.5332 92.2058 21.4322 92.2058 23.2931V33.918H88.0992V17.7833H88.1058L88.1091 17.7767Z" fill="#003F52"/>
<path d="M110.675 17.7767H114.604V19.4286H114.663C115.706 17.9591 116.986 17.3587 118.711 17.3587C120.586 17.3587 121.952 18.2908 122.399 19.9395H122.458C123.084 18.2278 124.571 17.3587 126.506 17.3587C129.217 17.3587 130.494 19.0704 130.494 22.1885V33.9246H126.387V22.6396C126.387 21.2895 125.94 20.5365 124.778 20.5365C123.465 20.5365 122.633 21.4355 122.633 23.2964V33.9213H118.526V22.6363C118.526 21.2862 118.079 20.5332 116.917 20.5332C115.604 20.5332 114.772 21.4322 114.772 23.2931V33.918H110.665V17.7833H110.672L110.675 17.7767Z" fill="#003F52"/>
<path d="M139.009 17.3554C143.952 17.2625 145.321 20.2347 145.321 25.8473C145.321 31.46 143.712 34.3392 139.009 34.3392C134.067 34.4321 132.698 31.46 132.698 25.8473C132.705 20.3242 134.311 17.3554 139.009 17.3554ZM139.009 31.5197C140.678 31.5197 141.214 29.871 141.214 25.8506C141.214 21.8302 140.678 20.1816 139.009 20.1816C136.989 20.1816 136.805 22.5501 136.805 25.8506C136.811 29.1512 136.989 31.5197 139.009 31.5197Z" fill="#003F52"/>
<path d="M160.085 12.4991V16.0385H155.439V33.918H151.155V16.0385H146.508V12.4991H160.085Z" fill="#003F52"/>
<path d="M159.608 17.7767H163.537V19.9395H163.596C164.428 18.3771 165.59 17.3587 167.291 17.3587C167.528 17.3587 167.798 17.3919 168.031 17.4184V21.3791C167.614 21.3459 167.166 21.3194 166.751 21.3194C165.32 21.3194 163.714 22.0658 163.714 24.2285V33.9213H159.608V17.7733V17.7767Z" fill="#003F52"/>
<path d="M177.738 32.0272H177.679C176.814 33.6161 175.33 34.3359 173.602 34.3359C171.042 34.3359 169.525 32.9261 169.525 29.745V17.7733H173.632V28.9057C173.632 30.5278 174.168 31.1548 175.389 31.1548C176.787 31.1548 177.561 30.2823 177.561 28.4811V17.77H181.667V33.9113H177.738V32.0239H177.732L177.738 32.0272Z" fill="#003F52"/>
<path d="M187.409 28.6403V29.181C187.409 30.5908 188.149 31.523 189.555 31.523C190.802 31.523 191.641 30.8927 191.641 29.6056C191.641 28.5541 190.956 28.0764 190.15 27.7746L187.264 26.723C185 25.9103 183.839 24.5005 183.839 22.225C183.839 19.5513 185.507 17.362 189.732 17.362C193.454 17.362 195.211 19.0438 195.211 21.9529V22.6131H191.516C191.516 20.991 191.039 20.1849 189.699 20.1849C188.656 20.1849 187.765 20.7853 187.765 21.9231C187.765 22.7026 188.179 23.3661 189.548 23.8139L192.016 24.6531C194.609 25.5255 195.56 26.8424 195.56 29.2706C195.56 32.6641 193.059 34.3425 189.607 34.3425C184.994 34.3425 183.714 32.3058 183.714 29.2109V28.6403H187.409Z" fill="#003F52"/>
<path d="M198.511 13.1558H202.618V17.7733H205V20.5929H202.618V29.3237C202.618 30.5875 202.888 31.095 204.075 31.095C204.404 31.095 204.73 31.0619 205 31.0353V33.918C204.108 34.0108 203.272 34.0971 202.322 34.0971C199.107 34.0971 198.511 33.1052 198.511 29.8378V20.5962H196.425V17.7766H198.511V13.1525V13.1558Z" fill="#003F52"/>
<path d="M95.6279 51.2899V51.5785C95.6279 52.9817 96.2366 53.6882 97.5001 53.6882C98.6518 53.6882 99.2276 52.8656 99.2276 52.0131C99.2276 50.8056 98.6189 50.2715 97.5989 49.9697L96.3518 49.5351C94.6901 48.8916 93.9695 48.0225 93.9695 46.3805C93.9695 44.2874 95.3712 43.1297 97.5166 43.1297C100.442 43.1297 100.741 44.9674 100.741 46.1549V46.4137H98.9183V46.1682C98.9183 45.1233 98.4544 44.5096 97.3225 44.5096C96.536 44.5096 95.7891 44.9442 95.7891 46.1682C95.7891 47.1501 96.2827 47.6477 97.5001 48.1154L98.7308 48.5665C100.343 49.147 101.047 50.0294 101.047 51.6084C101.047 54.0597 99.5797 55.0715 97.2797 55.0715C94.4532 55.0715 93.8115 53.1674 93.8115 51.5586V51.2866H95.6279V51.2932V51.2899Z" fill="#003F52"/>
<path d="M111.919 50.726V50.9715C111.919 53.048 111.09 55.0815 108.401 55.0815C105.526 55.0815 104.634 53.2106 104.634 49.1073C104.634 45.0039 105.526 43.1331 108.418 43.1331C111.659 43.1331 111.853 45.5513 111.853 46.7421V46.9544H110.03V46.7587C110.03 45.6972 109.714 44.4699 108.401 44.5196C107.059 44.5196 106.457 45.3556 106.457 49.0608C106.457 52.7661 107.066 53.7015 108.401 53.7015C109.918 53.7015 110.096 51.9932 110.096 50.9317V50.736H111.919V50.726Z" fill="#003F52"/>
<path d="M115.585 43.3486H117.408V47.9562H120.764V43.3486H122.587V54.8459H120.764V49.502H117.408V54.8459H115.585V43.3486Z" fill="#003F52"/>
<path d="M126.015 43.3486H127.855L129.355 52.2851H129.388L130.889 43.3486H132.807L134.34 52.3348H134.373L135.857 43.3486H137.664L135.393 54.8459H133.284L131.816 46.1848H131.784L130.332 54.8459H128.223L126.012 43.3486H126.015Z" fill="#003F52"/>
<path d="M141.089 43.3486H147.255V44.8944H142.912V48.0822H147.002V49.628H142.912V53.2968H147.384V54.8426H141.092V43.352H141.086L141.089 43.3486Z" fill="#003F52"/>
<path d="M151.086 43.3486H152.908V54.8459H151.086V43.3486Z" fill="#003F52"/>
<path d="M156.452 53.3996L161.227 44.8944H156.739V43.3486H163.224V44.8944L158.45 53.3001H163.273V54.8459H156.452V53.3996Z" fill="#003F52"/>
<path d="M174.688 43.3486H177.021L180.025 54.8459H178.123L177.419 52.0263H174.079L173.342 54.8459H171.44L174.688 43.3486ZM177.113 50.5635L175.807 44.8944H175.774L174.415 50.5635H177.113Z" fill="#003F52"/>
<path d="M188.85 53.5124H188.817C188.324 54.5739 187.666 55.0748 186.327 55.0748C183.836 55.0748 182.941 53.2039 182.941 49.1006C182.941 44.9973 184.092 43.1264 186.725 43.1264C189.584 43.1264 190.065 45.3987 190.065 46.4436V46.6559H188.337V46.3839C188.337 45.5313 187.988 44.513 186.741 44.513C185.494 44.513 184.764 45.3788 184.764 49.0542C184.764 52.7296 185.372 53.6949 186.603 53.6949C187.991 53.7115 188.505 52.6964 188.505 50.182H186.59V48.7987H190.229V54.8526H188.854V53.5091H188.847L188.85 53.5124Z" fill="#003F52"/>
</g>
<defs>
<clipPath id="clip0_1_56">
<rect width="205" height="67" fill="white"/>
</clipPath>
</defs>
</svg>
