<svg width="18" height="18" viewBox="0 0 18 18" fill="none" xmlns="http://www.w3.org/2000/svg">
<path d="M4.36391 7.58011C4.86374 7.51297 5.36356 7.68455 5.71792 8.0389L6.61313 8.93411L7.45985 8.09112L6.23639 6.8714C6.04616 6.68117 6.04616 6.37157 6.23639 6.18134C6.42663 5.99111 6.73622 5.99111 6.92645 6.18134L8.14991 7.40479L8.99663 6.5618L8.09769 5.66286C7.74333 5.30851 7.57175 4.80495 7.63889 4.30886C7.78809 3.17492 7.42628 1.98877 6.55718 1.11594C5.66943 0.228189 4.45343 -0.129895 3.30085 0.0416872C3.11808 0.0677975 3.04348 0.29533 3.17403 0.425882L4.32661 1.57847C4.87493 2.12678 4.87493 3.01453 4.32661 3.55912L3.6179 4.26783C3.06959 4.81614 2.18184 4.81614 1.63725 4.26783L0.480935 3.11524C0.350384 2.98469 0.126581 3.05929 0.0967409 3.24206C-0.0748411 4.39465 0.283243 5.61064 1.17099 6.49839C2.04382 7.36749 3.22998 7.72931 4.36391 7.58011Z" fill="#003F52"/>
<path d="M11.533 9.09821L10.6863 9.9412L15.7144 14.9693C15.9046 15.1595 15.9046 15.4691 15.7144 15.6594C15.5242 15.8496 15.2146 15.8496 15.0244 15.6594L9.99626 10.6313L9.14954 11.4742L14.3306 16.6553C14.9871 17.3118 16.0501 17.308 16.7066 16.6515C17.3631 15.9951 17.3631 14.932 16.7103 14.2755L11.533 9.09821Z" fill="#003F52"/>
<path d="M13.4764 5.74122H15.7107L17.945 1.27635L16.8297 0.161072L12.3611 2.39164V4.62593L6.28863 10.6798L5.19572 9.59062L0.794272 13.9921C-0.123319 14.9097 -0.123319 16.3942 0.794272 17.3118C1.71186 18.2294 3.19642 18.2294 4.11401 17.3118L8.51546 12.9104L7.40018 11.7951L13.4764 5.74122Z" fill="#003F52"/>
</svg>
